<svg width="20" height="20" viewBox="0 0 20 20" fill="none" xmlns="http://www.w3.org/2000/svg">
<path fill-rule="evenodd" clip-rule="evenodd" d="M0.568019 1.41811H4.97016V3.23499H0.568019C0.255613 3.23499 0 2.89086 0 2.47007V2.18303C0 1.76224 0.255613 1.41811 0.568019 1.41811ZM6.3192 1.41811H19.3126C19.625 1.41811 19.8806 1.76224 19.8806 2.18303V2.47007C19.8806 2.89086 19.625 3.23499 19.3126 3.23499H6.3192V1.41811Z" fill="#242424"/>
<path fill-rule="evenodd" clip-rule="evenodd" d="M0.674521 6.4386H13.9519V8.25568H0.674521C0.303536 8.25568 0 7.84672 0 7.34704C0 6.84736 0.303536 6.4386 0.674521 6.4386ZM15.301 6.4386H19.2061C19.5771 6.4386 19.8806 6.84736 19.8806 7.34704C19.8806 7.84672 19.5771 8.25568 19.2061 8.25568H15.301V6.4386Z" fill="#242424"/>
<path fill-rule="evenodd" clip-rule="evenodd" d="M0.674521 11.5429H9.94032V13.3598H0.674521C0.303536 13.3598 0 12.951 0 12.4514C0 11.9517 0.303536 11.5429 0.674521 11.5429ZM11.2894 11.5429H19.2061C19.5771 11.5429 19.8806 11.9517 19.8806 12.4514C19.8806 12.951 19.5771 13.3598 19.2061 13.3598H11.2894V11.5429Z" fill="#242424"/>
<path fill-rule="evenodd" clip-rule="evenodd" d="M5.41667 -5.24521e-06L5.62499 0.353121L5.83333 0.706247H5.8216V4.55711H5.83333L5.62499 4.91003L5.41667 5.26315H4.99999H4.58333L4.37499 4.91003L4.1698 4.56245H4.16666V4.55711V0.706247L4.37499 0.353121L4.58333 -5.24521e-06H4.99999H5.41667Z" fill="#242424"/>
<path fill-rule="evenodd" clip-rule="evenodd" d="M14.5833 5.26315L14.7917 5.61627L15 5.96939H14.9882V9.82019H15L14.7917 10.1731L14.5833 10.5263H14.1667H13.75L13.5417 10.1731L13.3365 9.82554H13.3333V9.82019V5.96939L13.5417 5.61627L13.75 5.26315H14.1667H14.5833Z" fill="#242424"/>
<path fill-rule="evenodd" clip-rule="evenodd" d="M10.4167 9.47369L10.625 9.82679L10.8333 10.1799H10.8216V14.0306H10.8333L10.625 14.3838L10.4167 14.7368H9.99995H9.58331L9.37498 14.3838L9.1698 14.036H9.16666V14.0306V10.1799L9.37498 9.82679L9.58331 9.47369H9.99995H10.4167Z" fill="#242424"/>
<path fill-rule="evenodd" clip-rule="evenodd" d="M0.793878 16.524H2.97095V18.3409H0.793878C0.422893 18.3409 0.119349 17.9321 0.119349 17.4325C0.119349 16.9328 0.422893 16.524 0.793878 16.524ZM10.0597 16.524H11.4087H12.2962H19.3254C19.6964 16.524 20 16.9328 20 17.4325C20 17.9321 19.6964 18.3409 19.3254 18.3409H12.2962H11.4087H10.0597H9.20766H4.59247V16.524H9.20766H10.0597Z" fill="#242424"/>
<path fill-rule="evenodd" clip-rule="evenodd" d="M2.91666 14.7368L2.70832 15.0899L2.5 15.443H2.51173V19.2938H2.5L2.70832 19.6469L2.91666 20H3.33333H3.75L3.95834 19.6469L4.16353 19.2991H4.16667V19.2938V15.443L3.95834 15.0899L3.75 14.7368H3.33333H2.91666Z" fill="#242424"/>
</svg>
