<svg width="16" height="15" viewBox="0 0 16 15" fill="none" xmlns="http://www.w3.org/2000/svg">
<path d="M14.2121 14.5L10.3101 10.8916C7.56036 12.6991 3.77137 12.257 1.59355 9.87456C-0.584259 7.49214 -0.424348 3.96422 1.96143 1.75863C4.34657 -0.447923 8.16264 -0.596414 10.7399 1.41705C13.3171 3.4305 13.7956 6.93408 11.8405 9.47663L15.7414 13.086L14.2121 14.5ZM6.54945 2.00062C4.49847 2.00019 2.72901 3.33131 2.31237 5.18807C1.89573 7.04482 2.94642 8.9169 4.82832 9.67087C6.71022 10.4248 8.90608 9.85346 10.0864 8.30268C11.2668 6.7519 11.1073 4.64795 9.70439 3.26463L10.3587 3.86463L9.62111 3.18463L9.60813 3.17263C8.79889 2.41981 7.69742 1.99776 6.54945 2.00062Z" fill="#242424"/>
</svg>
